<?xml version="1.0" encoding="UTF-8"?>
<svg width="20px" height="20px" viewBox="0 0 20 20" version="1.1" xmlns="http://www.w3.org/2000/svg" xmlns:xlink="http://www.w3.org/1999/xlink">
    <title>pc_@</title>
    <defs>
        <linearGradient x1="100%" y1="98.4211526%" x2="0%" y2="1.57884739%" id="linearGradient-1">
            <stop stop-color="#F6603E" offset="0%"></stop>
            <stop stop-color="#F17C55" offset="100%"></stop>
        </linearGradient>
    </defs>
    <g id="页面-1" stroke="none" stroke-width="1" fill="none" fill-rule="evenodd">
        <g id="PC切图" transform="translate(-124.000000, -37.000000)">
            <g id="pc_@" transform="translate(124.000000, 37.000000)">
                <rect id="矩形备份-2" fill="#FFFFFF" opacity="0.01" x="0" y="0" width="20" height="20"></rect>
                <path d="M10.3277454,1 C7.57018568,1 5.31618037,1.88721485 3.54175066,3.68562334 C1.83925729,5.36413793 1,7.45029178 1,9.96806366 C1,12.653687 1.83925729,14.7877984 3.54175066,16.4183554 C5.19628647,18.0009549 7.45029178,18.7922546 10.3277454,18.7922546 C12.222069,18.7922546 13.9245623,18.4085942 15.4592042,17.665252 C17.0418037,16.897931 18.2407427,15.7949072 19.08,14.3561804 L17.4014854,14.3561804 C16.7300796,15.3153316 15.8428647,16.0586737 14.7398408,16.6101857 C13.4929443,17.2096552 12.0062599,17.5213793 10.3277454,17.5213793 C7.97782493,17.5213793 6.13145889,16.8739523 4.78864721,15.6270557 C3.34992042,14.3082228 2.65453581,12.437878 2.65453581,10.0160212 C2.65453581,7.80997347 3.34992042,5.96360743 4.76466844,4.52488064 C6.20339523,3.06217507 8.02578249,2.34281167 10.2318302,2.34281167 C12.2940053,2.34281167 13.9725199,2.94228117 15.2194164,4.16519894 C16.3703979,5.29220159 16.9458886,6.7069496 16.9458886,8.40944297 C16.9458886,9.89612732 16.5142706,11.1909814 15.6510345,12.2940053 C14.9076923,13.2291777 14.1643501,13.7087533 13.421008,13.7087533 C12.9654111,13.7087533 12.7496021,13.4929443 12.7496021,13.1092838 C12.7496021,12.8215385 12.8455172,12.3419629 13.0373475,11.6465782 L14.7398408,5.38811671 L13.1812202,5.38811671 L12.8215385,6.73092838 C12.437878,5.53198939 11.670557,4.93251989 10.5195756,4.93251989 C9.08084881,4.93251989 7.85793103,5.55596817 6.80286472,6.85082228 C5.69984085,8.14567639 5.17230769,9.70429708 5.17230769,11.4787268 C5.17230769,12.5098143 5.48403183,13.3730504 6.10748011,14.0444562 C6.73092838,14.7158621 7.5462069,15.0755438 8.55331565,15.0755438 C9.75225464,15.0755438 10.7593634,14.5240318 11.5746419,13.4449867 C11.670557,14.5000531 12.222069,15.0275862 13.2291777,15.0275862 C14.4760743,15.0275862 15.6270557,14.3561804 16.682122,13.0373475 C17.7371883,11.6465782 18.2887003,10.1119363 18.2887003,8.38546419 C18.2887003,6.32328912 17.6172944,4.62079576 16.2744828,3.25400531 C14.8117772,1.74334218 12.8215385,1 10.3277454,1 Z M10.7833422,6.44318302 C11.2629178,6.44318302 11.6465782,6.63501326 11.9583024,7.01867374 C12.222069,7.33039788 12.3659416,7.71405836 12.3659416,8.14567639 C12.3659416,8.28954907 12.2700265,8.67320955 12.1261538,9.29665782 L11.5986207,11.2629178 C11.4067905,11.886366 11.02313,12.4618568 10.4476393,12.9414324 C9.87214854,13.421008 9.27267905,13.6607958 8.67320955,13.6607958 C8.07374005,13.6607958 7.61814324,13.4689655 7.3064191,13.085305 C6.99469496,12.7016446 6.85082228,12.1980902 6.85082228,11.5506631 C6.85082228,10.1359151 7.25846154,8.93697613 8.07374005,7.92986737 C8.84106101,6.92275862 9.75225464,6.44318302 10.7833422,6.44318302 Z" id="形状" fill="url(#linearGradient-1)"></path>
            </g>
        </g>
    </g>
</svg>