<?xml version="1.0" encoding="UTF-8"?>
<svg width="20px" height="20px" viewBox="0 0 20 20" version="1.1" xmlns="http://www.w3.org/2000/svg" xmlns:xlink="http://www.w3.org/1999/xlink">
    <title>pc_expression</title>
    <defs>
        <linearGradient x1="100%" y1="100%" x2="0%" y2="0%" id="linearGradient-1">
            <stop stop-color="#F6603E" offset="0%"></stop>
            <stop stop-color="#F17C55" offset="100%"></stop>
        </linearGradient>
    </defs>
    <g id="页面-1" stroke="none" stroke-width="1" fill="none" fill-rule="evenodd">
        <g id="PC切图" transform="translate(-63.000000, -37.000000)">
            <g id="编组-2" transform="translate(63.000000, 37.000000)">
                <rect id="矩形备份" fill="#FFFFFF" opacity="0.01" x="0" y="0" width="20" height="20"></rect>
                <path d="M10,1 C14.9705629,1 19,5.02943709 19,10 C19,14.9705629 14.9705629,19 10,19 C5.02943709,19 1,14.9705629 1,10 C1,5.02943709 5.02943709,1 10,1 Z M10,2.18782119 C5.68544371,2.18782119 2.18782119,5.68544371 2.18782119,10 C2.18782119,14.3145563 5.68544371,17.8121788 10,17.8121788 C14.3145563,17.8121788 17.8121788,14.3145563 17.8121788,10 C17.8121788,5.68544371 14.3145563,2.18782119 10,2.18782119 Z M6.59257616,11.7460993 C7.56827152,13.052351 8.69213907,13.6812781 10.0009338,13.6812781 C11.3144371,13.6812781 12.4737483,13.0474636 13.5105364,11.7336026 C13.7137417,11.4761192 14.0871921,11.4321126 14.3446755,11.635298 C14.6021589,11.8384834 14.6461854,12.2119536 14.443,12.4694371 C13.1927152,14.0537748 11.701457,14.8690993 10.0009338,14.8690993 C8.29568212,14.8690993 6.83007285,14.0489073 5.6409404,12.4569404 C5.44464901,12.1941523 5.49854967,11.8219934 5.76133775,11.625702 C6.02412583,11.4294106 6.39628477,11.4833113 6.59257616,11.7460993 L6.59257616,11.7460993 Z M7.35024503,6.66497351 C8.10719868,6.66497351 8.72080795,7.27860265 8.72080795,8.03553642 C8.72080795,8.79249007 8.10719868,9.40609934 7.35024503,9.40609934 C6.59331126,9.40609934 5.97970199,8.7924702 5.97970199,8.03553642 C5.97970199,7.27858278 6.59331126,6.66497351 7.35024503,6.66497351 Z M12.7868013,6.66497351 C13.543755,6.66497351 14.1573642,7.27860265 14.1573642,8.03553642 C14.1573642,8.79249007 13.5437351,9.40609934 12.7868013,9.40609934 C12.0298477,9.40609934 11.4162384,8.7924702 11.4162384,8.03553642 C11.4162384,7.27858278 12.0298675,6.66497351 12.7868013,6.66497351 Z" id="形状" fill="url(#linearGradient-1)"></path>
            </g>
        </g>
    </g>
</svg>