<?xml version="1.0" encoding="UTF-8"?>
<svg width="20px" height="20px" viewBox="0 0 20 20" version="1.1" xmlns="http://www.w3.org/2000/svg" xmlns:xlink="http://www.w3.org/1999/xlink">
    <title>pc_screenshot</title>
    <defs>
        <linearGradient x1="100%" y1="100%" x2="0%" y2="0%" id="linearGradient-1">
            <stop stop-color="#F6603E" offset="0%"></stop>
            <stop stop-color="#F17C55" offset="100%"></stop>
        </linearGradient>
    </defs>
    <g id="页面-1" stroke="none" stroke-width="1" fill="none" fill-rule="evenodd">
        <g id="PC切图" transform="translate(-33.000000, -37.000000)">
            <g id="pc_screenshot" transform="translate(33.000000, 37.000000)">
                <rect id="矩形" fill="#FFFFFF" opacity="0.01" x="0" y="0" width="20" height="20"></rect>
                <g id="jiandaojianqie" transform="translate(1.000000, 1.000000)" fill="url(#linearGradient-1)">
                    <path d="M13.7500007,9.72972 C13.4897589,9.72972 13.2360186,9.75607714 12.9885153,9.79989429 L10.0606564,6.95118857 L15.0836639,2.06398286 C15.669426,1.49402571 15.669426,0.569957143 15.0836639,0 L9.00005286,5.91919714 L2.91638892,0 C2.33062686,0.569957143 2.33062686,1.49402571 2.91638892,2.06398286 L7.93939643,6.95118857 L5.01153752,9.79992 C4.76403429,9.75610286 4.51032034,9.72974571 4.24999927,9.72974571 C1.90650171,9.72974571 0,11.5847229 0,13.8648857 C0,16.1450486 1.90650171,18 4.24999927,18 C6.59349682,18 8.5,16.1450229 8.5,13.86486 C8.5,12.40272 7.71393459,11.1184714 6.53350404,10.3829914 L9,7.98318 L11.466496,10.3830171 C10.2860654,11.1184971 9.5,12.40272 9.5,13.86486 C9.5,16.1450229 11.4065032,18 13.7500007,18 C16.0934983,18 18,16.1450229 18,13.86486 C18,11.5846971 16.0934983,9.72972 13.7500007,9.72972 Z M4.24999927,16.5405343 C2.7336356,16.5405343 1.5000044,15.3402429 1.5000044,13.86486 C1.5000044,12.3894771 2.7336356,11.1891857 4.24999927,11.1891857 C5.76636293,11.1891857 6.99999413,12.3894771 6.99999413,13.86486 C6.99999413,15.3402429 5.76636293,16.5405343 4.24999927,16.5405343 Z M13.7500007,16.5405343 C12.2336371,16.5405343 11.0000059,15.3402429 11.0000059,13.86486 C11.0000059,12.3894771 12.2336371,11.1891857 13.7500007,11.1891857 C15.2663644,11.1891857 16.4999956,12.3894771 16.4999956,13.86486 C16.4999956,15.3402429 15.266338,16.5405343 13.7500007,16.5405343 Z" id="形状"></path>
                </g>
            </g>
        </g>
    </g>
</svg>