<?xml version="1.0" encoding="UTF-8"?>
<svg width="26px" height="26px" viewBox="0 0 26 26" version="1.1" xmlns="http://www.w3.org/2000/svg" xmlns:xlink="http://www.w3.org/1999/xlink">
    <title>address book_01</title>
    <defs>
        <linearGradient x1="96.2278107%" y1="100%" x2="3.77218935%" y2="0%" id="linearGradient-1">
            <stop stop-color="#FF5A33" offset="0%"></stop>
            <stop stop-color="#FFA98C" offset="100%"></stop>
        </linearGradient>
    </defs>
    <g id="页面-1" stroke="none" stroke-width="1" fill="none" fill-rule="evenodd">
        <g id="PC切图" transform="translate(-91.000000, -107.000000)">
            <g id="编组-8" transform="translate(91.000000, 107.000000)">
                <path d="M22.1153846,2 C23.2199541,2 24.1153846,2.8954305 24.1153846,4 L24.1153846,23 C24.1153846,24.1045695 23.2199541,25 22.1153846,25 L6.88461538,25 C5.78004588,25 4.88461538,24.1045695 4.88461538,23 L4.884,20.208 L2.95833333,20.2083333 C2.42906045,20.2083333 2,19.7792729 2,19.25 C2,18.7207271 2.42906045,18.2916667 2.95833333,18.2916667 L4.884,18.291 L4.884,14.458 L2.95833333,14.4583333 C2.42906045,14.4583333 2,14.0292729 2,13.5 C2,12.9707271 2.42906045,12.5416667 2.95833333,12.5416667 L4.884,12.541 L4.884,8.708 L2.95833333,8.70833333 C2.42906045,8.70833333 2,8.27927289 2,7.75 C2,7.22072711 2.42906045,6.79166667 2.95833333,6.79166667 L4.884,6.791 L4.88461538,4 C4.88461538,2.8954305 5.78004588,2 6.88461538,2 L22.1153846,2 Z" id="形状结合" fill="url(#linearGradient-1)"></path>
                <rect id="矩形" fill="#FFFFFF" opacity="0.8" x="17.0384615" y="8.19230769" width="1.76923077" height="10.6153846" rx="0.884615385"></rect>
                <rect id="矩形备份-4" fill="#FFFFFF" opacity="0" x="0" y="0" width="26" height="26"></rect>
            </g>
        </g>
    </g>
</svg>