<?xml version="1.0" encoding="UTF-8"?>
<svg width="26px" height="26px" viewBox="0 0 26 26" version="1.1" xmlns="http://www.w3.org/2000/svg" xmlns:xlink="http://www.w3.org/1999/xlink">
    <title>home_02</title>
    <g id="页面-1" stroke="none" stroke-width="1" fill="none" fill-rule="evenodd">
        <g id="PC切图" transform="translate(-33.000000, -149.000000)">
            <g id="Group-15-Copy" transform="translate(33.000000, 149.000000)">
                <path d="M13.5,3 C16.3994949,3 19.0244949,4.17525253 20.9246212,6.0753788 C22.8247475,7.97550506 24,10.6005051 24,13.5 C24,16.3994949 22.8247475,19.0244949 20.9246212,20.9246212 C19.0244949,22.8247475 16.3994949,24 13.5,24 C12.0729495,24 10.7123067,23.7156187 9.47191784,23.1998793 C9.19285754,23.0838492 8.27714111,22.9945143 7.20546167,22.9409959 L7.20546167,22.9409959 L6.27074653,22.8910664 C5.45798319,22.8420233 4.53788674,22.9244189 4.32596956,22.7136211 C4.02141915,22.4106793 4.13193508,20.8897627 4.07191065,19.7760028 C4.0147968,18.7162488 3.92323065,17.8222156 3.80996404,17.5516744 C3.2880036,16.3049542 3,14.9361036 3,13.5 C3,10.6005051 4.17525253,7.97550506 6.0753788,6.0753788 C7.97550506,4.17525253 10.6005051,3 13.5,3 Z" id="Oval-14" stroke="#F3CDC2" stroke-width="2"></path>
                <rect id="矩形备份-7" fill="#FFFFFF" opacity="0" x="0" y="0" width="26" height="26"></rect>
            </g>
        </g>
    </g>
</svg>