<svg height="191" viewBox="0 0 213 191" width="213" xmlns="http://www.w3.org/2000/svg"><g fill="none" fill-rule="evenodd"><path d="m0 0h213v191h-213z" fill="#f4f5f7" fill-rule="nonzero"/><g opacity=".2" transform="translate(1)"><g stroke="#979797"><path d="m4.55675611 22.2143807h7.21400369v-5.7580443h6.3544298v-5.6356255" transform="matrix(.96592583 .25881905 -.25881905 .96592583 4.66149 -2.372438)"/><path d="m49.6383309 99.5894491c6.7147658-.8044295 10.6530159-4.8305253 11.8147503-12.0782873"/><path d="m146.7179 57.2924154h3.711679v-2.9625727h3.269419v-2.899587" transform="matrix(-.25881905 .96592583 -.96592583 -.25881905 241.594275 -76.659135)"/><path d="m186.210344 69.3745059c4.238479-.5077702 6.724373-3.0491135 7.45768-7.6240298" transform="matrix(0 -1 1 0 124.376693 255.501675)"/><path d="m51.7179003 147.292415h3.7116787v-2.962572h3.2694192v-2.899587" transform="matrix(-.25881905 .96592583 -.96592583 -.25881905 208.93979 128.397532)"/><path d="m19.5 131.5h7v7h-7z"/><path d="m53.5 35.5h2v2h-2z"/><path d="m86.5 118.5h2v2h-2z"/><path d="m163.5 169.5h2v2h-2z"/><path d="m50.6238371 181.08327-5.6089871 5.608987 6.418153 1.277952z"/><path d="m132.86739 86.0832697-3.85254 3.8525396 4.408316.877763z"/><path d="m178.838 15.7990894-5.575863 5.5758632 6.380251 1.2704053z" transform="matrix(.25881905 -.96592583 .96592583 .25881905 112.274975 184.305446)"/><path d="m136 124 6.657396 4.836881-2.542899 7.826238h-8.228994l-2.542899-7.826238z" transform="matrix(-1 0 0 -1 272 262)"/><path d="m101 164 4.330127 2.5v5l-4.330127 2.5-4.330127-2.5v-5z"/><circle cx="5.5" cy="184.5" r="5.5"/><circle cx="7" cy="95" r="1"/><circle cx="101" cy="57" r="1"/><circle cx="210" cy="29" r="1"/><circle cx="139" cy="17" r="1"/><path d="m86.7166182 14.5894491c6.7147658-.8044295 10.6530159-4.83052531 11.8147503-12.07828733" transform="matrix(.70710678 .70710678 -.70710678 .70710678 33.174918 -62.990727)"/><path d="m177.102486 137.948367c2.925895-.350522 4.641949-2.104854 5.148163-5.262996" transform="matrix(-.70710678 .70710678 -.70710678 -.70710678 402.410563 103.949825)"/><path d="m171.553041 85.5869995-4.116706 10.9360305"/></g><path d="m39.4604586 70.9608227c-.6538202 0-1.2308361-.2330383-1.6798451-.6846731-.5612612-.5665128-.8638828-1.4435245-.7897044-2.292309.097154-1.0739455.9899204-1.887282 2.6645139-2.4229418-1.528206-3.0235898-4.6515756-4.797963-4.6903059-4.8183128-.279646-.1562342-.3794257-.5074327-.2258174-.7870787.1568906-.2796459.5080891-.3820515.7877351-.2258173.1844613.1024055 3.6537778 2.0664916 5.2797943 5.5338388.4897086-.0512028 3.7463367-.2645477 6.0412715 2.2227258.2153143.2363205.1995596.6026173-.0334787.818588-.2363206.2179401-.6026174.2021854-.8179316-.0334787-1.638489-1.776999-3.9288287-1.9004109-4.7467602-1.8774353.1824919.5848933.3104989 1.2052347.3617016 1.8590548.0105032.120786.0899331 1.2544681-.5665128 2.0310436-.3334745.3925546-.8028333.6255929-1.3568736.6695748-.0768042.0052516-.1536084.0072209-.2277867.0072209zm.6406911-4.3331993c-1.2078604.3689226-1.9050059.8770117-1.9562087 1.4592792-.0459512.5074327.1332585 1.0483441.4588557 1.3739412.2540445.2566704.5894884.3748306.9925462.3387261.2487929-.0203498.4280027-.1024055.563887-.2638912.29737-.351855.3131247-.9899204.29737-1.1875106-.048577-.6052432-.1739582-1.1796333-.3564502-1.7205447z" fill="#979797"/></g></g></svg>